<?xml version="1.0" encoding="utf-8"?>
<!-- Generator: Adobe Illustrator 27.9.0, SVG Export Plug-In . SVG Version: 6.00 Build 0)  -->
<svg version="1.1" id="Layer_1" xmlns="http://www.w3.org/2000/svg" xmlns:xlink="http://www.w3.org/1999/xlink" x="0px" y="0px"
	 viewBox="0 0 375 150" style="enable-background:new 0 0 375 150;" xml:space="preserve">
<style type="text/css">
	.st0{fill:#66FFCC;}
</style>
<g>
	<path d="M73.8,121.4c-1,0-1.7,0-2-0.1l0,0c-19.6-1.4-29.1-14.8-33.7-25.9c-2.7-6.5-4.1-13.5-4.2-20.5l-10.1,0l0-7l10.4,0
		c0.3-2.7,0.8-5.4,1.5-8C44.2,28,76.3,28.1,76.6,28.1c31.2,0,35.7,30.8,36.4,40.3c0.1,1.7-0.5,3.5-1.7,4.7c-1.2,1.3-2.9,2-4.6,2
		c0,0,0,0,0,0l-65.8-0.2c0.1,6.1,1.3,12.2,3.7,17.9c5.5,13.4,14.9,20.7,27.7,21.6l0.1,0c0.9,0.1,23.2,2,30.5-21l6.7,2.1
		C102,119.5,80.6,121.4,73.8,121.4z M41.3,67.9l64.6,0.2c-0.9-10.5-5.5-33-29.4-33c-1.1,0-27,0-34,26.6C42,63.8,41.6,65.8,41.3,67.9
		z"/>
	<path d="M226.2,121c-3.2,0-6-2.1-6.9-5.2l-23.2-79.9L176.4,113c-1.4,5.4-4.7,6.5-7.2,6.5c-2.5,0-5.8-1.1-7.2-6.6l-20.6-75.7
		c-0.7-2.7-3.1-4.6-5.8-4.6c-3.3,0-6,2.7-6,6v2.1h-7v-2.1c0-7.2,5.8-13,13-13c5.9,0,11.1,4,12.6,9.8l20.6,75.7
		c0.2,0.7,0.3,1.1,0.5,1.3c0.1-0.2,0.2-0.5,0.4-1.1l19.9-77.8c0.7-3,3.4-5.1,6.6-5.1c3,0,5.7,2,6.5,4.9l23.4,80.6
		c0,0.1,0.3,0.1,0.3,0l22.4-84.2l6.8,1.8l-22.4,84.2C232.3,118.8,229.5,121,226.2,121z M196.3,35.2L196.3,35.2
		C196.3,35.2,196.3,35.2,196.3,35.2z"/>
	<path d="M351.5,122h-6.4c-7.3,0-13.2-5.9-13.2-13.2l-0.5-58.5c-2.7-18.1-25.9-16-26.9-15.9l-0.3,0c-18.1,0.3-24.4,18.3-24.6,19.1
		l-6.6-2.2c0.3-1,8-23.4,31-23.9c10.8-1.1,31.6,2.2,34.4,22.1l0,0.5l0.5,58.8c0,3.4,2.8,6.2,6.2,6.2h6.4V122z"/>
	<path d="M294.7,120.2c-1.4,0-2.7-0.1-4.1-0.2c-14.5-1.6-22.5-10.2-22.5-24.3c0-1,0.2-10.1,7.8-17.5c6.4-6.2,15.8-9.3,28.1-9
		c9.7,0.2,16.9-2,21.6-6.6c5.6-5.5,5.7-12.7,5.7-12.8l7-0.1c0,0.4,0,10.2-7.7,17.8c-6.1,6-15.1,9-26.8,8.7
		c-10.3-0.2-18.1,2.1-23.1,7c-5.6,5.5-5.7,12.3-5.7,12.5c0,10.5,5.3,16.2,16.2,17.3c22,2.4,41.3-19.5,41.5-19.7l5.3,4.6
		C337.2,98.9,318.3,120.2,294.7,120.2z"/>
</g>
<g>
	<circle class="st0" cx="20.2" cy="71.6" r="7.4"/>
	<path d="M20.2,80c-4.6,0-8.4-3.8-8.4-8.4s3.8-8.4,8.4-8.4s8.4,3.8,8.4,8.4S24.9,80,20.2,80z M20.2,65.2c-3.5,0-6.4,2.9-6.4,6.4
		s2.9,6.4,6.4,6.4c3.5,0,6.4-2.9,6.4-6.4S23.8,65.2,20.2,65.2z"/>
</g>
<g>
	<circle class="st0" cx="108.3" cy="91.9" r="7.4"/>
	<path d="M108.3,100.3c-4.6,0-8.4-3.8-8.4-8.4s3.8-8.4,8.4-8.4s8.4,3.8,8.4,8.4S112.9,100.3,108.3,100.3z M108.3,85.4
		c-3.5,0-6.4,2.9-6.4,6.4s2.9,6.4,6.4,6.4s6.4-2.9,6.4-6.4S111.8,85.4,108.3,85.4z"/>
</g>
<g>
	<circle class="st0" cx="100.5" cy="16" r="7.4"/>
	<path d="M100.5,24.4c-4.6,0-8.4-3.8-8.4-8.4s3.8-8.4,8.4-8.4s8.4,3.8,8.4,8.4S105.1,24.4,100.5,24.4z M100.5,9.5
		c-3.5,0-6.4,2.9-6.4,6.4c0,3.5,2.9,6.4,6.4,6.4s6.4-2.9,6.4-6.4C106.9,12.4,104,9.5,100.5,9.5z"/>
</g>
<g>
	<circle class="st0" cx="126" cy="42.5" r="7.4"/>
	<path d="M126,50.9c-4.6,0-8.4-3.8-8.4-8.4s3.8-8.4,8.4-8.4s8.4,3.8,8.4,8.4S130.6,50.9,126,50.9z M126,36.1c-3.5,0-6.4,2.9-6.4,6.4
		s2.9,6.4,6.4,6.4s6.4-2.9,6.4-6.4S129.5,36.1,126,36.1z"/>
</g>
<g>
	<circle class="st0" cx="178.5" cy="19.7" r="7.4"/>
	<path d="M178.5,28.1c-4.6,0-8.4-3.8-8.4-8.4s3.8-8.4,8.4-8.4s8.4,3.8,8.4,8.4S183.1,28.1,178.5,28.1z M178.5,13.3
		c-3.5,0-6.4,2.9-6.4,6.4s2.9,6.4,6.4,6.4s6.4-2.9,6.4-6.4S182,13.3,178.5,13.3z"/>
</g>
<g>
	<circle class="st0" cx="202.1" cy="133.2" r="7.4"/>
	<path d="M202.1,141.7c-4.6,0-8.4-3.8-8.4-8.4s3.8-8.4,8.4-8.4s8.4,3.8,8.4,8.4S206.8,141.7,202.1,141.7z M202.1,126.8
		c-3.5,0-6.4,2.9-6.4,6.4s2.9,6.4,6.4,6.4s6.4-2.9,6.4-6.4S205.7,126.8,202.1,126.8z"/>
</g>
<g>
	<circle class="st0" cx="354.3" cy="116.7" r="7.4"/>
	<path d="M354.3,125.1c-4.6,0-8.4-3.8-8.4-8.4s3.8-8.4,8.4-8.4c4.6,0,8.4,3.8,8.4,8.4S358.9,125.1,354.3,125.1z M354.3,110.3
		c-3.5,0-6.4,2.9-6.4,6.4s2.9,6.4,6.4,6.4s6.4-2.9,6.4-6.4S357.8,110.3,354.3,110.3z"/>
</g>
<g>
	<circle class="st0" cx="276.4" cy="56.2" r="7.4"/>
	<path d="M276.4,64.6c-4.6,0-8.4-3.8-8.4-8.4s3.8-8.4,8.4-8.4s8.4,3.8,8.4,8.4S281,64.6,276.4,64.6z M276.4,49.7
		c-3.5,0-6.4,2.9-6.4,6.4s2.9,6.4,6.4,6.4s6.4-2.9,6.4-6.4S279.9,49.7,276.4,49.7z"/>
</g>
<g>
	<circle class="st0" cx="313.6" cy="89.5" r="7.4"/>
	<path d="M313.6,97.9c-4.6,0-8.4-3.8-8.4-8.4s3.8-8.4,8.4-8.4s8.4,3.8,8.4,8.4S318.3,97.9,313.6,97.9z M313.6,83.1
		c-3.5,0-6.4,2.9-6.4,6.4s2.9,6.4,6.4,6.4s6.4-2.9,6.4-6.4S317.1,83.1,313.6,83.1z"/>
</g>
<g>
	<circle class="st0" cx="252" cy="31.9" r="7.4"/>
	<path d="M252,40.3c-4.6,0-8.4-3.8-8.4-8.4s3.8-8.4,8.4-8.4s8.4,3.8,8.4,8.4S256.7,40.3,252,40.3z M252,25.5c-3.5,0-6.4,2.9-6.4,6.4
		c0,3.5,2.9,6.4,6.4,6.4s6.4-2.9,6.4-6.4C258.4,28.3,255.6,25.5,252,25.5z"/>
</g>
</svg>
