<?xml version="1.0" encoding="utf-8"?>
<!-- Generator: Adobe Illustrator 27.9.0, SVG Export Plug-In . SVG Version: 6.00 Build 0)  -->
<svg version="1.1" id="Layer_1" xmlns="http://www.w3.org/2000/svg" xmlns:xlink="http://www.w3.org/1999/xlink" x="0px" y="0px"
	 viewBox="0 0 370 240" style="enable-background:new 0 0 370 240;" xml:space="preserve">
<style type="text/css">
	.st0{fill:#FFFFFF;}
	.st1{fill:#66FFCC;}
</style>
<g>
	<path class="st0" d="M71.1,129.4c-1,0-1.7,0-2-0.1l0,0c-19.6-1.4-29.1-14.8-33.7-25.9c-2.7-6.5-4.1-13.5-4.2-20.5l-10.1,0l0-7
		l10.4,0c0.3-2.7,0.8-5.4,1.5-8c8.5-32,40.5-31.8,40.9-31.8c31.2,0,35.7,30.8,36.4,40.3c0.1,1.7-0.5,3.5-1.7,4.7
		c-1.2,1.3-2.9,2-4.6,2c0,0,0,0,0,0l-65.8-0.2c0.1,6.1,1.3,12.2,3.7,17.9c5.5,13.4,14.9,20.7,27.7,21.6l0.1,0
		c0.9,0.1,23.2,2,30.5-21l6.7,2.1C99.3,127.4,77.9,129.4,71.1,129.4z M38.6,75.9l64.6,0.2c-0.9-10.5-5.5-33-29.4-33
		c-1.2,0-27,0-34,26.6C39.3,71.7,38.9,73.8,38.6,75.9z"/>
	<path class="st0" d="M223.5,128.9c-3.2,0-6-2.1-6.9-5.2l-23.2-79.9L173.7,121c-1.4,5.4-4.7,6.5-7.2,6.5c-2.5,0-5.8-1.1-7.2-6.6
		l-20.6-75.7c-0.7-2.7-3.1-4.6-5.8-4.6c-3.3,0-6,2.7-6,6v2.1h-7v-2.1c0-7.2,5.8-13,13-13c5.9,0,11.1,4,12.6,9.8l20.6,75.7
		c0.2,0.7,0.3,1.1,0.5,1.3c0.1-0.2,0.2-0.5,0.4-1.1l19.9-77.8c0.7-3,3.4-5.1,6.6-5.1c3,0,5.7,2,6.5,4.9l23.4,80.7
		c0,0.1,0.3,0.1,0.3,0l22.4-84.2l6.8,1.8l-22.4,84.2C229.6,126.7,226.8,128.9,223.5,128.9z M193.7,43.1L193.7,43.1
		C193.7,43.1,193.7,43.1,193.7,43.1z"/>
	<path class="st0" d="M348.8,129.9h-6.4c-7.3,0-13.2-5.9-13.2-13.2l-0.5-58.5c-2.7-18.1-25.9-16-26.9-15.9l-0.3,0
		c-18.1,0.3-24.4,18.3-24.6,19.1l-6.6-2.2c0.3-1,8-23.4,31-23.9c10.8-1.1,31.6,2.2,34.4,22.1l0,0.5l0.5,58.8c0,3.4,2.8,6.2,6.2,6.2
		h6.4V129.9z"/>
	<path class="st0" d="M292,128.2c-1.4,0-2.7-0.1-4.1-0.2c-14.5-1.6-22.5-10.2-22.5-24.3c0-1,0.3-10.2,7.8-17.5
		c6.4-6.2,15.8-9.3,28.1-9c9.6,0.2,16.9-2,21.6-6.6c5.6-5.5,5.7-12.7,5.7-12.8l7-0.1c0,0.4,0,10.2-7.7,17.8c-6.1,6-15.1,9-26.8,8.7
		c-10.3-0.2-18.1,2.1-23.1,7c-5.6,5.5-5.7,12.3-5.7,12.5c0,10.5,5.3,16.2,16.2,17.3c21.9,2.4,41.3-19.5,41.5-19.7l5.3,4.6
		C334.6,106.8,315.7,128.2,292,128.2z"/>
</g>
<g>
	<circle class="st1" cx="17.6" cy="79.5" r="7.4"/>
	<path class="st0" d="M17.6,87.9c-4.6,0-8.4-3.8-8.4-8.4s3.8-8.4,8.4-8.4s8.4,3.8,8.4,8.4S22.2,87.9,17.6,87.9z M17.6,73.1
		c-3.5,0-6.4,2.9-6.4,6.4s2.9,6.4,6.4,6.4S24,83,24,79.5S21.1,73.1,17.6,73.1z"/>
</g>
<g>
	<circle class="st1" cx="105.6" cy="99.8" r="7.4"/>
	<path class="st0" d="M105.6,108.2c-4.6,0-8.4-3.8-8.4-8.4s3.8-8.4,8.4-8.4s8.4,3.8,8.4,8.4S110.2,108.2,105.6,108.2z M105.6,93.4
		c-3.5,0-6.4,2.9-6.4,6.4s2.9,6.4,6.4,6.4s6.4-2.9,6.4-6.4S109.1,93.4,105.6,93.4z"/>
</g>
<g>
	<circle class="st1" cx="97.8" cy="23.9" r="7.4"/>
	<path class="st0" d="M97.8,32.3c-4.6,0-8.4-3.8-8.4-8.4s3.8-8.4,8.4-8.4s8.4,3.8,8.4,8.4S102.5,32.3,97.8,32.3z M97.8,17.5
		c-3.5,0-6.4,2.9-6.4,6.4c0,3.5,2.9,6.4,6.4,6.4s6.4-2.9,6.4-6.4C104.2,20.4,101.4,17.5,97.8,17.5z"/>
</g>
<g>
	<circle class="st1" cx="123.3" cy="50.4" r="7.4"/>
	<path class="st0" d="M123.3,58.9c-4.6,0-8.4-3.8-8.4-8.4s3.8-8.4,8.4-8.4s8.4,3.8,8.4,8.4S127.9,58.9,123.3,58.9z M123.3,44
		c-3.5,0-6.4,2.9-6.4,6.4s2.9,6.4,6.4,6.4c3.5,0,6.4-2.9,6.4-6.4S126.8,44,123.3,44z"/>
</g>
<g>
	<circle class="st1" cx="175.8" cy="27.7" r="7.4"/>
	<path class="st0" d="M175.8,36.1c-4.6,0-8.4-3.8-8.4-8.4s3.8-8.4,8.4-8.4s8.4,3.8,8.4,8.4S180.4,36.1,175.8,36.1z M175.8,21.3
		c-3.5,0-6.4,2.9-6.4,6.4s2.9,6.4,6.4,6.4s6.4-2.9,6.4-6.4S179.3,21.3,175.8,21.3z"/>
</g>
<g>
	<circle class="st1" cx="199.4" cy="141.2" r="7.4"/>
	<path class="st0" d="M199.4,149.6c-4.6,0-8.4-3.8-8.4-8.4s3.8-8.4,8.4-8.4s8.4,3.8,8.4,8.4S204.1,149.6,199.4,149.6z M199.4,134.8
		c-3.5,0-6.4,2.9-6.4,6.4s2.9,6.4,6.4,6.4s6.4-2.9,6.4-6.4S203,134.8,199.4,134.8z"/>
</g>
<g>
	<circle class="st1" cx="237" cy="184.1" r="7.4"/>
	<path class="st0" d="M237,192.5c-4.6,0-8.4-3.8-8.4-8.4s3.8-8.4,8.4-8.4s8.4,3.8,8.4,8.4S241.6,192.5,237,192.5z M237,177.7
		c-3.5,0-6.4,2.9-6.4,6.4s2.9,6.4,6.4,6.4s6.4-2.9,6.4-6.4S240.5,177.7,237,177.7z"/>
</g>
<g>
	<circle class="st1" cx="293" cy="216.3" r="7.4"/>
	<path class="st0" d="M293,224.7c-4.6,0-8.4-3.8-8.4-8.4s3.8-8.4,8.4-8.4s8.4,3.8,8.4,8.4S297.6,224.7,293,224.7z M293,209.8
		c-3.5,0-6.4,2.9-6.4,6.4s2.9,6.4,6.4,6.4s6.4-2.9,6.4-6.4S296.5,209.8,293,209.8z"/>
</g>
<g>
	<circle class="st1" cx="351.6" cy="124.7" r="7.4"/>
	<path class="st0" d="M351.6,133.1c-4.6,0-8.4-3.8-8.4-8.4c0-4.6,3.8-8.4,8.4-8.4s8.4,3.8,8.4,8.4
		C360,129.3,356.3,133.1,351.6,133.1z M351.6,118.2c-3.5,0-6.4,2.9-6.4,6.4s2.9,6.4,6.4,6.4s6.4-2.9,6.4-6.4
		S355.2,118.2,351.6,118.2z"/>
</g>
<g>
	<circle class="st1" cx="273.7" cy="64.1" r="7.4"/>
	<path class="st0" d="M273.7,72.5c-4.6,0-8.4-3.8-8.4-8.4s3.8-8.4,8.4-8.4s8.4,3.8,8.4,8.4S278.3,72.5,273.7,72.5z M273.7,57.7
		c-3.5,0-6.4,2.9-6.4,6.4s2.9,6.4,6.4,6.4s6.4-2.9,6.4-6.4S277.2,57.7,273.7,57.7z"/>
</g>
<g>
	<circle class="st1" cx="310.9" cy="97.5" r="7.4"/>
	<path class="st0" d="M310.9,105.9c-4.6,0-8.4-3.8-8.4-8.4s3.8-8.4,8.4-8.4s8.4,3.8,8.4,8.4S315.6,105.9,310.9,105.9z M310.9,91.1
		c-3.5,0-6.4,2.9-6.4,6.4s2.9,6.4,6.4,6.4s6.4-2.9,6.4-6.4S314.5,91.1,310.9,91.1z"/>
</g>
<g>
	<circle class="st1" cx="249.3" cy="39.8" r="7.4"/>
	<path class="st0" d="M249.3,48.2c-4.6,0-8.4-3.8-8.4-8.4s3.8-8.4,8.4-8.4s8.4,3.8,8.4,8.4S254,48.2,249.3,48.2z M249.3,33.4
		c-3.5,0-6.4,2.9-6.4,6.4c0,3.5,2.9,6.4,6.4,6.4s6.4-2.9,6.4-6.4C255.8,36.3,252.9,33.4,249.3,33.4z"/>
</g>
</svg>
